NCAA.Football.2011.11.13.Nebraska.vs.Peen.State.x264


Format                           : AVI
Format/Info                      : Audio Video Interleave
File size                        : 595 MiB
Duration                         : 37mn 17s
Overall bit rate                 : 2 231 Kbps

Video
ID                               : 0
Format                           : AVC
Format/Info                      : Advanced Video Codec
Codec ID                         : H264
Bit rate                         : 2 030 Kbps
Width                            : 720 pixels
Height                           : 480 pixels
Display aspect ratio             : 3:2
Frame rate                       : 29.970 fps
Standard                         : NTSC
Color space                      : YUV
Chroma subsampling               : 4:2:0
Bits/(Pixel*Frame)               : 0.196
Stream size                      : 541 MiB (91%)

Audio
ID                               : 1
Format                           : MPEG Audio
Format version                   : Version 1
Format profile                   : Layer 3
Codec ID                         : 55
Codec ID/Hint                    : MP3
Duration                         : 37mn 17s
Bit rate mode                    : Constant
Bit rate                         : 192 Kbps
Channel(s)                       : 2 channels
Sampling rate                    : 48.0 KHz
Compression mode                 : Lossy
Delay relative to video          : 1ms
Stream size                      : 51.2 MiB (9%)
Alignment                        : Split accross interleaves
Interleave, duration             : 200 ms (5.99 video frames)
Interleave, preload duration     : 180 ms



